<svg width="89" height="20" viewBox="0 0 89 20" fill="none" xmlns="http://www.w3.org/2000/svg">
<path d="M11.6962 18.9998L8.45619 14.3198H8.26419H4.88019V18.9998H0.992188V2.19982H8.26419C9.75219 2.19982 11.0402 2.44782 12.1282 2.94382C13.2322 3.43982 14.0802 4.14382 14.6722 5.05582C15.2642 5.96782 15.5602 7.04782 15.5602 8.29582C15.5602 9.54382 15.2562 10.6238 14.6482 11.5358C14.0562 12.4318 13.2082 13.1198 12.1042 13.5998L15.8722 18.9998H11.6962ZM11.6242 8.29582C11.6242 7.35182 11.3202 6.63182 10.7122 6.13582C10.1042 5.62382 9.21619 5.36782 8.04819 5.36782H4.88019V11.2238H8.04819C9.21619 11.2238 10.1042 10.9678 10.7122 10.4558C11.3202 9.94382 11.6242 9.22382 11.6242 8.29582Z" fill="#252B42"/>
<path d="M31.1246 12.5918C31.1246 12.6398 31.1006 12.9758 31.0526 13.5998H21.2846C21.4606 14.3998 21.8766 15.0318 22.5326 15.4958C23.1886 15.9598 24.0046 16.1918 24.9806 16.1918C25.6526 16.1918 26.2446 16.0958 26.7566 15.9038C27.2846 15.6958 27.7726 15.3758 28.2206 14.9438L30.2126 17.1038C28.9966 18.4958 27.2206 19.1918 24.8846 19.1918C23.4286 19.1918 22.1406 18.9118 21.0206 18.3518C19.9006 17.7758 19.0366 16.9838 18.4286 15.9758C17.8206 14.9678 17.5166 13.8238 17.5166 12.5438C17.5166 11.2798 17.8126 10.1438 18.4046 9.13582C19.0126 8.11182 19.8366 7.31982 20.8766 6.75982C21.9326 6.18382 23.1086 5.89582 24.4046 5.89582C25.6686 5.89582 26.8126 6.16782 27.8366 6.71182C28.8606 7.25582 29.6606 8.03982 30.2366 9.06382C30.8286 10.0718 31.1246 11.2478 31.1246 12.5918ZM24.4286 8.72782C23.5806 8.72782 22.8686 8.96782 22.2926 9.44782C21.7166 9.92782 21.3646 10.5838 21.2366 11.4158H27.5966C27.4686 10.5998 27.1166 9.95182 26.5406 9.47182C25.9646 8.97582 25.2606 8.72782 24.4286 8.72782Z" fill="#252B42"/>
<path d="M33.7173 1.19182H37.4613V18.9998H33.7173V1.19182Z" fill="#252B42"/>
<path d="M53.852 6.08782L48.404 18.9998H44.54L39.116 6.08782H42.98L46.556 14.8718L50.252 6.08782H53.852Z" fill="#252B42"/>
<path d="M55.4798 6.08782H59.2238V18.9998H55.4798V6.08782ZM57.3517 4.28782C56.6637 4.28782 56.1038 4.08782 55.6718 3.68782C55.2398 3.28782 55.0238 2.79182 55.0238 2.19982C55.0238 1.60782 55.2398 1.11182 55.6718 0.711817C56.1038 0.311817 56.6637 0.111816 57.3517 0.111816C58.0397 0.111816 58.5997 0.303817 59.0317 0.687818C59.4637 1.07182 59.6798 1.55182 59.6798 2.12782C59.6798 2.75182 59.4637 3.27182 59.0317 3.68782C58.5997 4.08782 58.0397 4.28782 57.3517 4.28782Z" fill="#252B42"/>
<path d="M67.1425 19.1918C66.0705 19.1918 65.0225 19.0638 63.9985 18.8078C62.9745 18.5358 62.1585 18.1998 61.5505 17.7998L62.7985 15.1118C63.3745 15.4798 64.0705 15.7838 64.8865 16.0238C65.7025 16.2478 66.5025 16.3598 67.2865 16.3598C68.8705 16.3598 69.6625 15.9678 69.6625 15.1838C69.6625 14.8158 69.4465 14.5518 69.0145 14.3918C68.5825 14.2318 67.9185 14.0958 67.0225 13.9838C65.9665 13.8238 65.0945 13.6398 64.4065 13.4318C63.7185 13.2238 63.1185 12.8558 62.6065 12.3278C62.1105 11.7998 61.8625 11.0478 61.8625 10.0718C61.8625 9.25582 62.0945 8.53582 62.5585 7.91182C63.0385 7.27182 63.7265 6.77582 64.6225 6.42382C65.5345 6.07182 66.6065 5.89582 67.8385 5.89582C68.7505 5.89582 69.6545 5.99982 70.5505 6.20782C71.4625 6.39982 72.2145 6.67182 72.8065 7.02382L71.5585 9.68782C70.4225 9.04782 69.1825 8.72782 67.8385 8.72782C67.0385 8.72782 66.4385 8.83982 66.0385 9.06382C65.6385 9.28782 65.4385 9.57582 65.4385 9.92782C65.4385 10.3278 65.6545 10.6078 66.0865 10.7678C66.5185 10.9278 67.2065 11.0798 68.1505 11.2238C69.2065 11.3998 70.0705 11.5918 70.7425 11.7998C71.4145 11.9918 71.9985 12.3518 72.4945 12.8798C72.9905 13.4078 73.2385 14.1438 73.2385 15.0878C73.2385 15.8878 72.9985 16.5998 72.5185 17.2238C72.0385 17.8478 71.3345 18.3358 70.4065 18.6878C69.4945 19.0238 68.4065 19.1918 67.1425 19.1918Z" fill="#252B42"/>
<path d="M88.2965 12.5918C88.2965 12.6398 88.2725 12.9758 88.2245 13.5998H78.4565C78.6325 14.3998 79.0485 15.0318 79.7045 15.4958C80.3605 15.9598 81.1765 16.1918 82.1525 16.1918C82.8245 16.1918 83.4165 16.0958 83.9285 15.9038C84.4565 15.6958 84.9445 15.3758 85.3925 14.9438L87.3845 17.1038C86.1685 18.4958 84.3925 19.1918 82.0565 19.1918C80.6005 19.1918 79.3125 18.9118 78.1925 18.3518C77.0725 17.7758 76.2085 16.9838 75.6005 15.9758C74.9925 14.9678 74.6885 13.8238 74.6885 12.5438C74.6885 11.2798 74.9845 10.1438 75.5765 9.13582C76.1845 8.11182 77.0085 7.31982 78.0485 6.75982C79.1045 6.18382 80.2805 5.89582 81.5765 5.89582C82.8405 5.89582 83.9845 6.16782 85.0085 6.71182C86.0325 7.25582 86.8325 8.03982 87.4085 9.06382C88.0005 10.0718 88.2965 11.2478 88.2965 12.5918ZM81.6005 8.72782C80.7525 8.72782 80.0405 8.96782 79.4645 9.44782C78.8885 9.92782 78.5365 10.5838 78.4085 11.4158H84.7685C84.6405 10.5998 84.2885 9.95182 83.7125 9.47182C83.1365 8.97582 82.4325 8.72782 81.6005 8.72782Z" fill="#252B42"/>
</svg>
